<svg xmlns="http://www.w3.org/2000/svg" width="218" height="218" viewBox="0 0 218 218"><path fill="#B16B57" d="M189.7 148c8 27.2-6.5 55.2-32 62.6-25.6 7.4-52.7-8.7-60.5-36-8-27 9.3-45.2 35-52.6 25.4-7.4 49.6-1.2 57.5 26z"/><path fill="#8C1C1B" d="M172 146.4c3.2 8 14.2 49-19 64.2-24 11-61-7.5-60.4-36 1-57.7 36-46.4 36-46.4 20.6-12.4 37.3 3 43.4 18.2z"/><path fill="none" stroke="#711011" stroke-width="12" stroke-miterlimit="10" d="M189.7 148c8 27.2-7 53.2-32.6 60.6-25.2 7.4-52-6.7-59.5-34-8-27 10.2-42.2 35.7-49.6 25.6-7.4 49-4.2 56.8 23z"/><path fill="#B16B57" d="M124.5 163.4c-1.2 28.3-23.7 50.3-50.2 49.2-26.6-1-47.2-25-46-53.2 1.2-28.3 23.2-40 49.8-39 27 1.2 48 14.7 46.8 43z"/><path fill="#8C1C1B" d="M106.8 157.7c.5 8.7-2 51-38.2 55-26.5 2.7-49.8-26.6-40.3-53.3 19.3-54.5 43.3-32.7 43.3-32.7 23.3-5.2 34.3 14.8 35.2 31z"/><path fill="none" stroke="#711011" stroke-width="12" stroke-miterlimit="10" d="M124.5 163.4c-1.2 28.3-23.6 48.2-50 47-26.7-1-47.4-22.7-46.2-51 1.2-28.3 23-37 49.7-35.8 26.6 1 47.7 11.5 46.5 39.8z"/><path fill="none" stroke="#38140D" stroke-width="12" stroke-linecap="round" stroke-linejoin="round" stroke-miterlimit="10" d="M76.7 133c26.6-42.7 25.6-113 4.7-126 31.5 0 53 67.3 53 125.8"/></svg>