<svg xmlns="http://www.w3.org/2000/svg" width="218" height="218" viewBox="0 0 218 218">
	<path fill="#B16B57" d="M208 112.2c0 54.6-44.2 98.8-98.8 98.8-54.5 0-98.7-44.2-98.7-98.8 0-54.5 44.2-98.7 98.7-98.7 54.6 0 98.8 44.2 98.8 98.7z"/>
	<path fill="#8C1C1B" d="M186 112.2c0 54.6-22.2 98.8-76.8 98.8-54.5 0-98.7-44.2-98.7-98.8 0-54.5 44.2-98.7 98.7-98.7 54.6 0 76.7 44.2 76.7 98.7z"/>
	<path fill="none" stroke="#D5D383" stroke-width="12" stroke-linecap="round" stroke-linejoin="round" stroke-miterlimit="10" d="M74 6.3l35 6.7 35.6-7m-35.4 7V6"/>
	<path fill="none" stroke="#711011" stroke-width="12" stroke-miterlimit="10" d="M208 112.2c0 54.6-44.2 98.8-98.8 98.8-54.5 0-98.7-44.2-98.7-98.8 0-54.5 44.2-98.7 98.7-98.7 54.6 0 98.8 44.2 98.8 98.7z"/></svg>