<svg xmlns="http://www.w3.org/2000/svg" width="218" height="218" viewBox="0 0 218 218">
  <circle fill="#8055A3" cx="73.5" cy="111.1" r="34.1"/>
  <ellipse fill="#562E79" cx="66.6" cy="111.1" rx="27.2" ry="34.1"/>
  <circle fill="none" stroke="#311A46" stroke-width="12" stroke-miterlimit="10" cx="73.5" cy="111.1" r="34.1"/>
  <circle fill="#8055A3" cx="141.9" cy="111.1" r="34.1"/>
  <ellipse fill="#562E79" cx="135" cy="111.1" rx="27.2" ry="34.1"/>
  <circle fill="none" stroke="#311A46" stroke-width="12" stroke-miterlimit="10" cx="141.9" cy="111.1" r="34.1"/>
  <circle fill="#8055A3" cx="109.1" cy="51.3" r="34.1"/>
  <ellipse fill="#562E79" cx="102.2" cy="51.3" rx="27.2" ry="34.1"/>
  <circle fill="none" stroke="#311A46" stroke-width="12" stroke-miterlimit="10" cx="109.1" cy="51.3" r="34.1"/>
  <circle fill="#8055A3" cx="109.1" cy="170.8" r="34.1"/>
  <ellipse fill="#562E79" cx="102.2" cy="170.8" rx="27.2" ry="34.1"/>
  <circle fill="none" stroke="#311A46" stroke-width="12" stroke-miterlimit="10" cx="109.1" cy="170.8" r="34.1"/>
  <circle fill="#8055A3" cx="40.7" cy="51.3" r="34.1"/>
  <ellipse fill="#562E79" cx="33.8" cy="51.3" rx="27.2" ry="34.1"/>
  <circle fill="none" stroke="#311A46" stroke-width="12" stroke-miterlimit="10" cx="40.7" cy="51.3" r="34.1"/>
  <circle fill="#8055A3" cx="177.6" cy="51.3" r="34.1"/>
  <ellipse fill="#562E79" cx="170.7" cy="51.3" rx="27.2" ry="34.1"/>
  <circle fill="none" stroke="#311A46" stroke-width="12" stroke-miterlimit="10" cx="177.6" cy="51.3" r="34.1"/>
</svg>