<svg xmlns="http://www.w3.org/2000/svg" width="218" height="218" viewBox="0 0 218 218">
  <path fill="#C5DFAE" d="M174 14.8c-19-12.7-38-6.5-61 8.7L90 41c-21 6.7-42.5 14-59.5 39.4l.2.2C5.3 118.4 15.3 169.6 53 195c38 25.5 89.2 15.5 114.6-22.3 17-25.4 15.7-48.2 14-70l7.7-28c5.3-27 3.8-47-15-59.7l-.3-.2z"/>
  <path fill="#67AC44" d="M167 10c-16.4-11-34-3.8-56 12.2L89.3 40.5C70 48.2 49.8 56.5 32.8 82h.2c-25.5 38-19.7 86.3 13 108.3 32.6 22 79.6 9 105-28.8 17-25.3 17.4-47 17.2-68l8.7-27c6.3-26.3 6.3-45.3-10-56.3z"/>
  <path fill="none" stroke="#35602E" stroke-width="12" stroke-miterlimit="10" d="M174 14.8c-19-12.7-38-6.5-61 8.7L90 41c-21 6.7-42.3 14.2-59.3 39.6C5.3 118.4 15.3 169.6 53 195c38 25.5 89.2 15.5 114.6-22.3 17-25.4 15.7-48.2 14-70l7.7-28c5.3-27 3.8-47-15-59.7l-.3-.2z"/>
  <path fill="none" stroke="#38140D" stroke-width="12" stroke-linecap="round" stroke-linejoin="round" stroke-miterlimit="10" d="M167.2 25.2l17.3-14"/>
</svg>