<svg xmlns="http://www.w3.org/2000/svg" width="218" height="218" viewBox="0 0 218 218">
	<path fill="#862C73" d="M212.2 102.4c0 52.5-38.8 95-86.6 95S39 155 39 102.4s38.8-95 86.6-95 86.6 42.6 86.6 95z"/>
	<path fill="#552D79" d="M190.7 89.8c0 53.8-36.8 100.5-82.2 100.5-45.4 0-82.3-31.8-82.3-85.6s37-97.4 82.3-97.4c45.4 0 82.2 28.7 82.2 82.5z"/>
	<path fill="none" stroke="#311A45" stroke-width="12" stroke-linecap="round" stroke-miterlimit="10" d="M107 8.5c5.8-1.2 11.6-2 17.6-2 47.8 0 86.6 42.7 86.6 95.2s-38.8 95-86.6 95c-6 0-11.8-.6-17.5-1.8"/>
	<path fill="#552D79" d="M171.5 104.7c0 53.8-36.8 97.3-82.2 97.3C44 202 7 158.5 7 104.7S44 7.3 89.4 7.3c45.4 0 82.2 43.6 82.2 97.4z"/>
	<path fill="none" stroke="#311A45" stroke-width="12" stroke-linecap="round" stroke-miterlimit="10" d="M163.4 56.2c-11.5-24-32-42-56.3-47.7m0 0c-5-1.2-11-2-16.3-2C44.7 6.5 7 49.3 7 101.8s37.4 95 83.3 95c5.8 0 11.4-.6 16.8-1.8m43-27c-11 13.4-26 23-43 27"/>
</svg>