<svg xmlns="http://www.w3.org/2000/svg" width="218" height="218" viewBox="0 0 218 218">
  <path fill="#8B86C0" stroke="#232255" stroke-width="12" stroke-miterlimit="10" d="M10.5 105c0-54.6 44.2-98.8 98.7-98.8 54.6 0 98.8 44.2 98.8 98.8 0 54.5-44.2 98.7-98.8 98.7-54.5 0-98.7-44.2-98.7-98.7z"/>
  <path fill="#5250A2" d="M111.3 203.7c-54.6 0-98.8-44.2-98.8-98.7 0-54.6 44.2-98.8 98.8-98.8 54.5 0 76.7 44.2 76.7 98.8 0 54.5-22.2 98.7-76.7 98.7z"/>
  <path fill="none" stroke="#893B29" stroke-width="12" stroke-linecap="round" stroke-linejoin="round" stroke-miterlimit="10" d="M144.5 211l-35.2-6.7-35.5 6.7m35.5-6.7v6.7"/>
  <path fill="none" stroke="#232255" stroke-width="12" stroke-miterlimit="10" d="M10.5 105c0-54.6 44.2-98.8 98.7-98.8 54.6 0 98.8 44.2 98.8 98.8 0 54.5-44.2 98.7-98.8 98.7-54.5 0-98.7-44.2-98.7-98.7z"/>
</svg>