<svg xmlns="http://www.w3.org/2000/svg" width="218" height="218" viewBox="0 0 218 218">
  <circle fill="#D42727" cx="108.8" cy="151.9" r="37.3"/>
  <ellipse fill="#EF3E23" cx="101.3" cy="151.9" rx="29.8" ry="37.3"/>
  <circle fill="none" stroke="#A21F21" stroke-width="12" stroke-miterlimit="10" cx="108.8" cy="151.9" r="37.3"/>
  <circle fill="#D42727" cx="77.4" cy="110.7" r="37.3"/>
  <ellipse fill="#EF3E23" cx="69.8" cy="110.7" rx="29.8" ry="37.3"/>
  <circle fill="none" stroke="#A21F21" stroke-width="12" stroke-miterlimit="10" cx="77.4" cy="110.7" r="37.3"/>
  <circle fill="#D42727" cx="142.8" cy="110.7" r="37.3"/>
  <ellipse fill="#EF3E23" cx="135.3" cy="110.7" rx="29.8" ry="37.3"/>
  <circle fill="none" stroke="#A21F21" stroke-width="12" stroke-miterlimit="10" cx="142.8" cy="110.7" r="37.3"/>
  <circle fill="#D42727" cx="43.4" cy="56.9" r="37.3"/>
  <ellipse fill="#EF3E23" cx="35.8" cy="56.9" rx="29.8" ry="37.3"/>
  <circle fill="none" stroke="#A21F21" stroke-width="12" stroke-miterlimit="10" cx="43.4" cy="56.9" r="37.3"/>
  <circle fill="#D42727" cx="108.8" cy="56.9" r="37.3"/>
  <ellipse fill="#EF3E23" cx="101.3" cy="56.9" rx="29.8" ry="37.3"/>
  <circle fill="none" stroke="#A21F21" stroke-width="12" stroke-miterlimit="10" cx="108.8" cy="56.9" r="37.3"/>
  <circle fill="#D42727" cx="174.3" cy="56.9" r="37.3"/>
  <ellipse fill="#EF3E23" cx="166.7" cy="56.9" rx="29.8" ry="37.3"/>
  <circle fill="none" stroke="#A21F21" stroke-width="12" stroke-miterlimit="10" cx="174.3" cy="56.9" r="37.3"/>
</svg>