<svg xmlns="http://www.w3.org/2000/svg" width="218" height="218" viewBox="0 0 218 218">
  <path fill="#E28165" d="M192.5 133c-25.7 41.3-106 95.8-147.4 70C4 177.5 17 81.3 43 40 68.6-1.6 112.6 2.4 154 28c41.4 25.8 64.5 63.5 39 105z"/>
  <path fill="none" stroke="#6F9F40" stroke-width="12" stroke-linecap="round" stroke-linejoin="round" stroke-miterlimit="10" d="M130.3 6L154 27.6l30 11.7m-30-11.7l3-5"/>
  <path fill="#D42727" d="M175.8 122.5C150 164 78 223.5 36.8 198c-41.5-26-20-117 5.7-158.3C68.3-1.6 104-2.8 145.3 22.7c41.4 26 56.2 58.4 30.5 99.8z"/>
  <path fill="none" stroke="#87171A" stroke-width="12" stroke-miterlimit="10" d="M192.5 133c-25.7 41.3-106 95.8-147.4 70C4 177.5 17 81.3 43 40 68.6-1.6 112.6 2.4 154 28c41.4 25.8 64.5 63.5 39 105z"/>
</svg>