<svg xmlns="http://www.w3.org/2000/svg" width="222.136" height="103.799" viewBox="0 0 222.136 103.799">
  <g fill="#414042">
    <path d="M34.554 29.171c-.952 0-1.785-.172-2.499-.517-.714-.344-1.31-.808-1.785-1.39-.477-.583-.834-1.256-1.071-2.021-.238-.765-.357-1.567-.357-2.408 0-.567.056-1.167.167-1.801.111-.633.281-1.253.51-1.861.228-.608.514-1.188.858-1.74s.746-1.038 1.207-1.458.978-.754 1.55-1.003c.572-.248 1.208-.372 1.907-.372.567 0 1.094.091 1.58.273.486.182.909.438 1.269.767.359.33.641.727.843 1.193.203.466.305.987.305 1.565 0 .628-.155 1.256-.464 1.884-.309.628-.736 1.221-1.284 1.778-.547.557-1.197 1.053-1.952 1.489s-1.572.775-2.453 1.018c.151.273.301.501.448.684.146.182.296.324.448.425.151.102.312.172.479.213s.347.061.539.061c.607 0 1.248-.122 1.922-.364.674-.243 1.329-.547 1.968-.912.638-.365 1.24-.762 1.808-1.193.567-.43 1.049-.838 1.443-1.223l1.96 2.036c-.892.922-1.838 1.737-2.841 2.446-.436.304-.904.603-1.405.896-.502.294-1.028.555-1.58.783-.553.228-1.125.41-1.717.547-.595.137-1.196.205-1.803.205zm-2.021-7.141c.364 0 .762-.093 1.192-.281s.83-.428 1.2-.722.682-.613.935-.957.38-.679.38-1.003c0-.456-.084-.831-.251-1.125-.167-.293-.372-.44-.615-.44-.436 0-.808.081-1.116.243-.31.162-.567.372-.775.63s-.375.552-.501.881c-.127.329-.223.661-.289.995-.065.334-.108.659-.129.972-.021.317-.031.585-.031.807z"/>
    <path d="M55.017 24.768c-.973.567-2.839 2.063-3.599 2.489-.76.426-1.436.78-2.028 1.064-.593.283-1.119.496-1.58.638-.461.142-.879.213-1.253.213-.771 0-1.449-.233-2.036-.699-.588-.466-1.079-1.137-1.474-2.013-.396-.876-.691-1.937-.889-3.183-.198-1.246-.297-2.648-.297-4.208 0-.608.025-1.256.076-1.945.051-.688.122-1.373.213-2.051-.304-.04-.539-.078-.707-.114-.167-.035-.344-.071-.531-.106-.188-.035-.426-.073-.714-.114-.289-.041-.707-.091-1.254-.152-.243-.031-.431-.089-.562-.175-.131-.086-.228-.188-.288-.304-.061-.117-.097-.238-.106-.365s-.016-.236-.016-.327c0-.203.1-.357.297-.463s.45-.185.76-.236c.309-.05.647-.078 1.018-.083.37-.005.725-.002 1.063.008.34.01.644.018.912.023.268.005.453-.002.555-.023.273-1.368.62-2.692 1.04-3.973s.892-2.421 1.413-3.418 1.092-1.798 1.709-2.4c.618-.603 1.267-.904 1.945-.904.436 0 .833.122 1.192.365s.666.567.919.972c.254.405.448.879.585 1.421s.205 1.106.205 1.694c0 .497-.07 1.021-.212 1.573-.143.552-.335 1.114-.578 1.687s-.529 1.152-.858 1.739c-.329.588-.676 1.17-1.04 1.748.091.01.243.018.455.022.213.005.459.013.737.023.278.01.58.023.904.038.323.015.638.028.941.038.304.01.588.02.851.03.264.01 3.481.021 3.653.03.203.01.35.112.441.304.091.193.137.436.137.729 0 .354-.102.644-.304.866-.203.223-.426.334-.669.334H47.21c-.294.405-.591.803-.889 1.193-.3.39-.575.742-.828 1.056-.041.628-.076 1.246-.106 1.854-.011.264-.021.535-.03.813-.011.279-.021.555-.031.828-.01.273-.018.537-.022.79-.005.253-.008.486-.008.699 0 .547.051 1.008.152 1.383.102.375.248.681.44.919s.428.41.707.517c.278.106.59.16.934.16.213 0 .479-.051.798-.152s.669-.241 1.049-.418.779-.387 1.2-.63c.42-.243.835-.509 1.246-.798.41-.289.802-.592 1.177-.912.375-.319 1.715-1.646 2.019-1.98v3.886zM49.154 6.533c0-.111-.008-.235-.022-.372-.016-.137-.049-.266-.099-.388-.051-.122-.13-.223-.236-.304-.105-.081-.256-.122-.447-.122-.264 0-.53.233-.798.699-.269.466-.527 1.061-.775 1.785s-.48 1.522-.698 2.393c-.219.872-.418 1.717-.601 2.538.152.021.304.038.456.053.151.015.309.033.471.053.304-.517.62-1.076.949-1.679.329-.603.626-1.195.89-1.777.263-.583.48-1.127.653-1.633.171-.506.257-.922.257-1.246z"/>
    <path d="M54.746 12.641c.273-1.368.62-2.692 1.04-3.973s.892-2.421 1.413-3.418 1.092-1.798 1.709-2.4c.618-.603 1.267-.904 1.945-.904.436 0 .833.122 1.192.365s.666.567.919.972c.254.405.448.879.585 1.421s.205 1.106.205 1.694c0 .497-.07 1.021-.212 1.573-.143.552-.335 1.114-.578 1.687s-.529 1.152-.858 1.739c-.329.588-.676 1.17-1.04 1.748.091.01.243.018.455.022.213.005.459.013.737.023.278.01.58.023.904.038.323.015.638.028.941.038.304.01.588.02.851.03.264.01.481.021.653.03.203.01.35.112.441.304.091.193.137.436.137.729 0 .354-.102.644-.304.866-.203.223-.426.334-.669.334H59.38c-.294.405-.591.803-.889 1.193-.3.39-.575.742-.828 1.056-.041.628-.076 1.246-.106 1.854-.011.264-.021.535-.03.813-.011.279-.021.555-.031.828-.01.273-.018.537-.022.79-.005.253-.008.486-.008.699 0 .547.051 1.008.152 1.383.102.375.248.681.44.919s.428.41.707.517c.278.106.59.16.934.16.213 0 .479-.051.798-.152s.669-.241 1.049-.418.779-.387 1.2-.63c.42-.243.835-.509 1.246-.798.41-.289.802-.592 1.177-.912.375-.319.715-.646 1.019-.98v3.89c-.973.567-1.839 1.063-2.599 1.489-.76.426-1.436.78-2.028 1.064-.593.283-1.119.496-1.58.638-.461.142-.879.213-1.253.213-.771 0-1.449-.233-2.036-.699-.588-.466-1.079-1.137-1.474-2.013-.396-.876-.691-1.937-.889-3.183-.198-1.246-.297-2.648-.297-4.208 0-.608.025-1.256.076-1.945.051-.688.122-1.373.213-2.051m7.003-8.543c0-.111-.008-.235-.022-.372-.016-.137-.049-.266-.099-.388-.051-.122-.13-.223-.236-.304-.105-.081-.256-.122-.447-.122-.264 0-.53.233-.798.699-.269.466-.527 1.061-.775 1.785s-.48 1.522-.698 2.393c-.219.872-.418 1.717-.601 2.538.152.021.304.038.456.053.151.015.309.033.471.053.304-.517.62-1.076.949-1.679.329-.603.626-1.195.89-1.777.263-.583.48-1.127.653-1.633.171-.506.257-.922.257-1.246z"/>
    <path d="M74.953 25.935c-.365.334-.818.691-1.36 1.071s-1.127.729-1.755 1.048-1.269.585-1.922.798c-.653.212-1.273.319-1.861.319-.526 0-.97-.073-1.329-.22s-.651-.352-.874-.615c-.223-.264-.382-.585-.479-.965-.096-.38-.144-.798-.144-1.253 0-.638.073-1.38.22-2.226s.327-1.722.539-2.628c.213-.906.438-1.811.677-2.712.237-.901.448-1.732.63-2.492.071-.263.213-.489.426-.676.213-.187.453-.339.722-.456.269-.116.547-.203.836-.258.288-.056.549-.083.782-.083.426 0 .714.079.866.235.151.157.228.367.228.63 0 .223-.051.545-.151.965-.102.42-.229.896-.38 1.428-.152.532-.314 1.104-.486 1.717-.173.613-.334 1.226-.486 1.838-.152.613-.278 1.21-.38 1.793s-.152 1.106-.152 1.572c0 .456.051.818.152 1.086.102.269.309.403.623.403.364 0 .77-.126 1.216-.38.445-.253.896-.56 1.352-.919.456-.359.901-.731 1.337-1.117.436-.385.82-.714 1.155-.987v3.084zm-6.792-15.619c0-.233.051-.496.152-.79.101-.293.266-.57.493-.828.229-.258.532-.476.912-.653.38-.177.854-.266 1.421-.266.354 0 .688.041 1.002.122.314.081.588.205.821.372.232.167.417.387.554.661.137.273.205.598.205.972 0 .344-.056.679-.167 1.003s-.288.613-.531.866c-.243.253-.55.458-.919.615-.37.157-.813.236-1.33.236-.892 0-1.55-.21-1.975-.631-.425-.42-.638-.98-.638-1.679z"/>
    <path d="M73.873 25.996c0-.668.041-1.441.122-2.317s.183-1.768.304-2.674c.122-.906.259-1.78.41-2.621.152-.841.299-1.56.44-2.158.111-.466.327-.856.646-1.17.318-.313.752-.471 1.299-.471s.927.167 1.14.501c.212.334.318.78.318 1.337 0 .152-.015.357-.045.615-.031.258-.068.542-.114.851-.046.309-.094.628-.145.958s-.099.633-.145.912c-.045.278-.083.521-.113.729-.03.208-.046.347-.046.418h.304c.061-.111.157-.291.289-.54.131-.248.283-.534.455-.858.173-.324.357-.666.555-1.025.198-.359.383-.704.555-1.033s.329-.62.471-.874c.143-.253.249-.44.319-.562.324-.547.694-.922 1.109-1.125s.876-.304 1.383-.304c.506 0 .909.212 1.208.638.298.425.448 1.013.448 1.762 0 .112-.023.299-.068.562-.046.264-.104.578-.175.942-.071.365-.15.765-.236 1.201s-.164.881-.235 1.337c-.07.456-.129.907-.175 1.352-.045.446-.068.856-.068 1.231 0 .628.079 1.145.236 1.549.156.405.402.608.736.608.152 0 .327-.045.524-.137s.41-.21.638-.357c.229-.147.461-.316.699-.509.238-.192.474-.39.706-.592.537-.476 1.1-1.013 1.687-1.61l.259 3.403-.76.577c-.415.314-.838.628-1.269.942s-.879.595-1.345.843c-.466.249-.952.451-1.459.608-.506.157-1.038.235-1.595.235-.558 0-1.025-.403-1.405-1.208s-.57-1.982-.57-3.532c0-.608.041-1.264.122-1.968.081-.704.182-1.461.304-2.271h-.243l-3.98 7.901c-.203.416-.431.699-.684.851-.254.152-.547.228-.882.228-.415 0-.749-.088-1.003-.266-.253-.177-.448-.415-.585-.714s-.228-.638-.273-1.018c-.045-.38-.068-.772-.068-1.177zM88.444 9.678c0-.182.008-.417.023-.707.015-.289.032-.607.053-.957s.046-.719.076-1.109.061-.772.091-1.147c.071-.881.152-1.828.243-2.841 0-.304.076-.575.229-.813.151-.238.349-.44.592-.608.243-.167.517-.296.82-.387.305-.091.608-.137.912-.137.253 0 .496.033.729.099.232.066.44.165.623.296.182.132.326.304.433.517.106.212.159.461.159.744 0 .122-.01.246-.03.373s-.051.261-.091.402c-.143.486-.297 1.021-.464 1.603s-.339 1.162-.517 1.74c-.177.577-.349 1.127-.517 1.648-.167.522-.316.965-.448 1.33-.172.486-.417.848-.736 1.086-.319.238-.641.357-.965.357s-.607-.124-.851-.373c-.242-.247-.364-.619-.364-1.116zm16.607 20.071c0-.051.013-.359.038-.927.025-.567.073-1.322.145-2.264.07-.942.167-2.028.288-3.259.122-1.231.281-2.532.479-3.905.198-1.373.431-2.78.699-4.224s.587-2.849.957-4.216.793-2.656 1.269-3.867c.477-1.21 1.011-2.269 1.604-3.175.592-.907 1.253-1.623 1.982-2.15s1.529-.79 2.4-.79c.345 0 .707.061 1.086.182.38.122.728.319 1.041.593.314.273.575.636.782 1.086.208.451.312 1.005.312 1.664 0 .598-.094 1.284-.28 2.059-.188.775-.451 1.603-.79 2.484-.34.881-.74 1.798-1.201 2.75-.461.952-.964 1.902-1.512 2.849-.547.947-1.121 1.879-1.724 2.795-.604.917-1.219 1.775-1.847 2.575l-.03.243c.203-.101.354-.167.456-.198.101-.03.207-.045.319-.045.131 0 .237.013.318.038s.154.053.221.083c.065.03.134.059.205.083.07.025.157.038.258.038 1.003 0 1.89-.119 2.659-.357s1.418-.504 1.945-.798c.617-.334 1.154-.724 1.61-1.17l-.335 3.692c-.668.365-1.367.648-2.097.851-.729.203-1.402.354-2.021.456-.719.112-1.434.183-2.142.213.364.668.693 1.362.987 2.082.253.618.483 1.309.691 2.074.207.765.312 1.537.312 2.317 0 .091-.014.284-.038.578-.025.293-.068.653-.13 1.079-.061.425-.146.896-.258 1.413s-.256 1.038-.433 1.565c-.178.526-.393 1.035-.646 1.527-.253.491-.549.927-.889 1.307-.339.38-.729.686-1.17.919s-.939.35-1.496.35c-.558 0-1.044-.127-1.459-.38-.415-.253-.77-.595-1.063-1.025-.294-.431-.539-.932-.736-1.504-.198-.572-.353-1.177-.464-1.815s-.189-1.289-.235-1.952c-.045-.666-.067-1.307-.067-1.924zm4.056-7.293c-.041 0-.086.114-.137.342s-.099.521-.145.881c-.046.359-.089.762-.129 1.208-.041.446-.076.884-.106 1.314s-.056.831-.076 1.2-.03.661-.03.874c0 1.489.027 2.674.084 3.555.055.881.126 1.55.212 2.006.086.456.183.752.289.889s.215.205.327.205c.344 0 .62-.157.827-.471.208-.314.365-.711.472-1.192.106-.481.177-1.008.213-1.58.035-.573.053-1.122.053-1.648 0-.355-.028-.79-.084-1.307s-.131-1.056-.228-1.618-.208-1.122-.334-1.679c-.127-.557-.259-1.056-.396-1.496-.137-.441-.275-.798-.418-1.071-.141-.275-.272-.412-.394-.412zM112.8 5.88c-.588 1.458-1.049 2.743-1.383 3.852-.335 1.109-.588 2.094-.76 2.955-.173.861-.294 1.618-.365 2.271-.07.653-.142 1.259-.212 1.815.617-1.165 1.24-2.312 1.868-3.441s1.195-2.178 1.702-3.145c.506-.967.919-1.821 1.238-2.56.318-.739.479-1.302.479-1.687 0-.537-.076-.929-.229-1.178-.151-.248-.359-.372-.622-.372-.467 0-.821.124-1.063.372-.243.25-.462.622-.653 1.118z"/>
    <path d="M116.946 25.996c0-.446.025-.965.076-1.558.051-.592.119-1.218.205-1.876.086-.659.188-1.33.304-2.013.117-.684.241-1.334.373-1.953.131-.618.263-1.185.395-1.702s.264-.942.396-1.276c.08-.223.161-.4.243-.532.08-.132.174-.236.28-.312.106-.076.238-.127.396-.152.157-.025.352-.038.585-.038.263 0 .468.013.615.038.146.025.256.086.326.183.071.096.114.235.13.418.015.182.022.43.022.744v1.36s.01 1.056.03 1.573h.167c.203-.405.431-.858.684-1.36.254-.501.547-.97.882-1.405.334-.436.714-.803 1.14-1.102.425-.299.916-.448 1.474-.448.192 0 .38.033.562.099.183.066.342.16.479.281s.246.271.327.448c.081.178.121.378.121.601 0 .172-.025.413-.075.722-.051.309-.106.633-.168.972-.061.339-.116.668-.167.988-.051.319-.075.585-.075.797 0 .365.035.668.105.912.071.243.165.438.281.585.116.147.248.25.396.312.146.061.301.091.463.091.456 0 .927-.101 1.413-.304.486-.202.932-.43 1.337-.684.477-.293.942-.628 1.398-1.003l-.229 3.556c-.264.172-.562.364-.896.577-.334.213-.691.413-1.071.6-.379.188-.774.345-1.185.471s-.828.19-1.254.19c-.759 0-1.372-.154-1.838-.463s-.836-.714-1.109-1.216-.476-1.063-.607-1.687c-.132-.623-.238-1.253-.319-1.892h-.243l-2.72 7.582c-.142.395-.275.722-.402.98s-.256.469-.388.631-.273.276-.425.342c-.152.066-.319.099-.502.099-.415 0-.749-.088-1.003-.266-.253-.177-.448-.415-.585-.714s-.228-.638-.273-1.018c-.047-.381-.071-.773-.071-1.178z"/>
    <path d="M135.209 29.171c-.952 0-1.785-.172-2.499-.517-.714-.344-1.31-.808-1.785-1.39-.477-.583-.834-1.256-1.071-2.021-.238-.765-.357-1.567-.357-2.408 0-.567.056-1.167.167-1.801.111-.633.281-1.253.51-1.861.228-.608.514-1.188.858-1.74s.746-1.038 1.207-1.458.978-.754 1.55-1.003c.572-.248 1.208-.372 1.907-.372.567 0 1.094.091 1.58.273.486.182.909.438 1.269.767.359.33.641.727.843 1.193.203.466.305.987.305 1.565 0 .628-.155 1.256-.464 1.884-.309.628-.736 1.221-1.284 1.778-.547.557-1.197 1.053-1.952 1.489s-1.572.775-2.453 1.018c.151.273.301.501.448.684.146.182.296.324.448.425.151.102.312.172.479.213s.347.061.539.061c.607 0 1.248-.122 1.922-.364.674-.243 1.329-.547 1.968-.912.638-.365 1.24-.762 1.808-1.193.567-.43 1.049-.838 1.443-1.223l1.96 2.036c-.892.922-1.838 1.737-2.841 2.446-.436.304-.904.603-1.405.896-.502.294-1.028.555-1.58.783-.553.228-1.125.41-1.717.547-.595.137-1.196.205-1.803.205zm-2.021-7.141c.364 0 .762-.093 1.192-.281s.83-.428 1.2-.722.682-.613.935-.957.38-.679.38-1.003c0-.456-.084-.831-.251-1.125-.167-.293-.372-.44-.615-.44-.436 0-.808.081-1.116.243-.31.162-.567.372-.775.63s-.375.552-.501.881c-.127.329-.223.661-.289.995-.065.334-.108.659-.129.972-.021.317-.031.585-.031.807z"/>
    <path d="M141.546 23.337c.566-.486 1.027-.891 1.382-1.215.354-.324.658-.62.912-.889.253-.268.483-.54.691-.813.207-.273.453-.598.736-.972.284-.375.628-.833 1.033-1.375s.932-1.218 1.58-2.028c.132-.183.278-.359.44-.532s.342-.327.54-.463c.197-.137.415-.248.653-.334.237-.086.504-.129.798-.129.485 0 .86.053 1.124.159.263.106.456.236.577.388s.192.312.213.479c.02.167.03.312.03.433 0 .243-.097.512-.289.805-.192.294-.405.577-.638.851-.233.274-.453.524-.661.752-.208.228-.326.397-.356.509 0 .314.022.6.068.858.045.258.105.512.182.76s.154.512.235.79c.081.279.16.6.236.965.075.365.137.785.182 1.261.046.477.068 1.039.068 1.687.365-.243.757-.463 1.178-.661.42-.198.858-.403 1.314-.615.455-.213.924-.448 1.405-.707.48-.258.965-.57 1.451-.935l.015 3.403c-.628.486-1.354.942-2.18 1.367-.826.426-1.692.8-2.599 1.125s-1.823.58-2.75.767c-.927.188-1.806.281-2.636.281-.598 0-1.154-.056-1.671-.167s-.971-.286-1.36-.524c-.39-.238-.706-.549-.949-.934s-.391-.851-.44-1.398c-.143.03-.281.051-.418.061-.137.01-.271.016-.403.016-.162 0-.313-.005-.455-.016-.143-.01-.264-.048-.365-.114s-.182-.172-.243-.319c-.061-.147-.091-.357-.091-.631 0-.243.061-.468.183-.676.121-.208.263-.393.425-.555s.324-.304.486-.425.285-.219.367-.29zm1.944 1.945c.121 0 .256.076.402.228.147.152.316.319.509.501.192.182.416.35.669.501s.542.228.866.228c.395 0 .722-.065.979-.197.259-.131.464-.306.615-.524.152-.217.259-.471.319-.759.061-.289.091-.59.091-.904 0-.273-.018-.552-.053-.835s-.081-.555-.137-.813-.116-.501-.183-.729c-.065-.228-.124-.423-.175-.585l-3.902 3.888z"/>
    <path d="M160.415 19.721c.415-.547.881-1.134 1.397-1.763.517-.628 1.054-1.213 1.61-1.754.558-.542 1.112-.993 1.664-1.353.552-.359 1.071-.539 1.558-.539.121 0 .258.022.41.068.151.045.296.129.433.25s.251.292.342.509c.092.218.137.499.137.843 0 .689-.096 1.36-.288 2.013-.193.653-.403 1.307-.631 1.96s-.436 1.319-.623 1.998-.281 1.388-.281 2.127c0 .405.062.729.183.973.121.243.278.364.471.364.243 0 .502-.05.775-.152.273-.101.547-.233.82-.395.273-.162.542-.347.805-.555.264-.207.512-.422.745-.646.557-.517 1.104-1.104 1.641-1.762l.259 4.041c-.183.142-.413.319-.691.532-.279.213-.588.438-.927.676-.34.238-.707.479-1.102.722-.396.243-.793.458-1.193.646s-.8.342-1.2.463-.782.182-1.146.182c-.558 0-1.041-.149-1.451-.448s-.747-.678-1.011-1.14c-.264-.46-.461-.964-.593-1.512-.131-.547-.197-1.063-.197-1.549 0-.324.043-.687.129-1.086.086-.4.192-.803.319-1.208.127-.405.269-.8.426-1.185.156-.385.304-.729.44-1.033s.256-.552.357-.745c.101-.192.167-.304.197-.334l-.319-.046c-.172.112-.463.396-.873.851-.411.456-.874 1.031-1.391 1.725s-1.051 1.474-1.603 2.34c-.553.866-1.052 1.76-1.497 2.681-.223.456-.405.854-.547 1.193s-.281.618-.418.835c-.137.218-.286.383-.448.494s-.369.167-.623.167c-.334 0-.598-.096-.79-.289s-.339-.448-.44-.768c-.102-.319-.167-.681-.197-1.086s-.046-.821-.046-1.246c0-.678.008-1.567.023-2.667.015-1.099.062-2.317.144-3.654s.198-2.745.35-4.224c.152-1.479.367-2.94.646-4.383s.628-2.821 1.049-4.133c.42-1.312.932-2.466 1.534-3.464s1.31-1.791 2.12-2.378c.808-.583 1.739-.877 2.793-.877.547 0 .995.082 1.345.243.35.162.628.39.836.684.207.294.352.646.433 1.056s.122.869.122 1.375c0 .75-.106 1.58-.319 2.492s-.494 1.859-.843 2.841c-.35.982-.747 1.978-1.193 2.985-.445 1.008-.901 1.985-1.367 2.932-.466.947-.925 1.841-1.375 2.682-.451.841-.849 1.58-1.192 2.218l.302.213zm1.353-9.389c.597-1.55 1.03-2.856 1.299-3.92.268-1.063.402-1.848.402-2.355 0-.77-.102-1.155-.304-1.155-.264 0-.653.431-1.17 1.292-.517.861-1.124 2.112-1.823 3.753-.172.557-.332 1.134-.479 1.732-.147.598-.278 1.193-.396 1.785-.116.593-.223 1.175-.318 1.748-.097.572-.181 1.117-.251 1.633-.172 1.206-.304 2.385-.396 3.54.274-.638.572-1.332.896-2.082s.644-1.491.958-2.226c.313-.734.609-1.428.889-2.082.279-.653.51-1.207.693-1.663zm26.497 15.603c-.365.334-.818.691-1.36 1.071s-1.127.729-1.755 1.048-1.269.585-1.922.798c-.653.212-1.273.319-1.861.319-.526 0-.97-.073-1.329-.22s-.651-.352-.874-.615c-.223-.264-.382-.585-.479-.965-.096-.38-.144-.798-.144-1.253 0-.638.073-1.38.22-2.226s.327-1.722.539-2.628c.213-.906.438-1.811.677-2.712.237-.901.448-1.732.63-2.492.071-.263.213-.489.426-.676.213-.187.453-.339.722-.456.269-.116.547-.203.836-.258.288-.056.549-.083.782-.083.426 0 .714.079.866.235.151.157.228.367.228.63 0 .223-.051.545-.151.965-.102.42-.229.896-.38 1.428-.152.532-.314 1.104-.486 1.717-.173.613-.334 1.226-.486 1.838-.152.613-.278 1.21-.38 1.793s-.152 1.106-.152 1.572c0 .456.051.818.152 1.086.102.269.309.403.623.403.364 0 .77-.126 1.216-.38.445-.253.896-.56 1.352-.919.456-.359.901-.731 1.337-1.117.436-.385.82-.714 1.155-.987v3.084zm-6.792-15.619c0-.233.051-.496.152-.79.101-.293.266-.57.493-.828.229-.258.532-.476.912-.653.38-.177.854-.266 1.421-.266.354 0 .688.041 1.002.122.314.081.588.205.821.372.232.167.417.387.554.661.137.273.205.598.205.972 0 .344-.056.679-.167 1.003s-.288.613-.531.866c-.243.253-.55.458-.919.615-.37.157-.813.236-1.33.236-.892 0-1.55-.21-1.975-.631-.425-.42-.638-.98-.638-1.679z"/>
    <path d="M187.186 25.996c0-.668.041-1.441.122-2.317s.183-1.768.304-2.674c.122-.906.259-1.78.41-2.621.152-.841.299-1.56.44-2.158.111-.466.327-.856.646-1.17.318-.313.752-.471 1.299-.471s.927.167 1.14.501c.212.334.318.78.318 1.337 0 .152-.015.357-.045.615-.031.258-.068.542-.114.851-.046.309-.094.628-.145.958s-.099.633-.145.912c-.045.278-.083.521-.113.729-.03.208-.046.347-.046.418h.304c.061-.111.157-.291.289-.54.131-.248.283-.534.455-.858.173-.324.357-.666.555-1.025.198-.359.383-.704.555-1.033s.329-.62.471-.874c.143-.253.249-.44.319-.562.324-.547.694-.922 1.109-1.125s.876-.304 1.383-.304c.506 0 .909.212 1.208.638.298.425.448 1.013.448 1.762 0 .112-.023.299-.068.562-.046.264-.104.578-.175.942-.071.365-.15.765-.236 1.201s-.164.881-.235 1.337c-.07.456-.129.907-.175 1.352-.045.446-.068.856-.068 1.231 0 .628.079 1.145.236 1.549.156.405.402.608.736.608.152 0 .327-.045.524-.137s.41-.21.638-.357c.229-.147.461-.316.699-.509.238-.192.474-.39.706-.592.537-.476 1.1-1.013 1.687-1.61l.259 3.403-.76.577c-.415.314-.838.628-1.269.942s-.879.595-1.345.843c-.466.249-.952.451-1.459.608-.506.157-1.038.235-1.595.235-.558 0-1.025-.403-1.405-1.208s-.57-1.982-.57-3.532c0-.608.041-1.264.122-1.968.081-.704.182-1.461.304-2.271h-.243l-3.98 7.901c-.203.416-.431.699-.684.851-.254.152-.547.228-.882.228-.415 0-.749-.088-1.003-.266-.253-.177-.448-.415-.585-.714s-.228-.638-.273-1.018c-.045-.38-.068-.772-.068-1.177z"/>
  </g>
  <path fill="#414042" d="M21.594 27.576c-.547.486-1.117.879-1.709 1.177-.593.299-1.168.448-1.725.448-.486 0-.96-.099-1.421-.296-.461-.197-.868-.481-1.223-.851-.355-.37-.639-.82-.852-1.352-.212-.532-.318-1.132-.318-1.801 0-.759.106-1.54.318-2.339.213-.8.507-1.583.882-2.348.374-.765.817-1.486 1.329-2.165.512-.678 1.071-1.271 1.679-1.777.608-.506 1.248-.909 1.922-1.208s1.36-.448 2.059-.448c.233 0 .416.045.548.137.131.091.24.195.326.312.086.117.17.23.251.342s.182.192.304.243c.121.051.245.083.372.099s.256.023.388.023c.111 0 .226-.002.342-.008.116-.005.23-.007.342-.007.152 0 .294.015.426.045.131.03.248.096.349.197.102.102.18.243.236.426.055.182.083.431.083.744 0 .264-.021.618-.061 1.064-.041.446-.097.942-.167 1.489-.071.547-.149 1.127-.235 1.74-.087.613-.175 1.213-.267 1.8-.212 1.398-.455 2.892-.729 4.482.304-.172.633-.385.987-.638s.749-.592 1.185-1.018c.436-.425.922-.959 1.459-1.603s1.14-1.446 1.808-2.408l.729 3.373c-.183.314-.418.636-.706.964-.289.33-.608.659-.958.988-.349.329-.714.648-1.094.957-.38.309-.752.6-1.116.874-.861.648-1.788 1.276-2.78 1.884-.192 1.083-.421 2.14-.684 3.168-.264 1.028-.575 1.99-.935 2.887-.36.896-.771 1.719-1.23 2.469-.462.75-.983 1.393-1.565 1.93-.582.537-1.233.955-1.952 1.253-.72.298-1.515.448-2.386.448-.344 0-.717-.036-1.116-.106-.4-.071-.771-.213-1.109-.425-.339-.213-.62-.517-.843-.912s-.335-.922-.335-1.58c0-.456.117-.97.35-1.542.233-.572.553-1.175.957-1.808.405-.633.887-1.291 1.443-1.975.558-.684 1.162-1.365 1.815-2.043s1.338-1.347 2.052-2.005c.714-.659 1.436-1.287 2.165-1.884l.41-1.416zm-5.607 12.778c.426 0 .828-.124 1.208-.372.38-.249.729-.575 1.048-.98.319-.405.61-.866.874-1.383.264-.516.496-1.046.699-1.587.202-.542.374-1.071.517-1.588.142-.517.253-.978.334-1.382-.396.263-.798.577-1.208.942s-.811.757-1.2 1.177c-.391.42-.76.854-1.109 1.299-.35.445-.656.874-.919 1.284-.264.41-.471.792-.623 1.147s-.228.648-.228.881c0 .374.202.562.607.562zm2.249-16.105c0 .253.018.499.053.737s.099.451.189.638c.092.188.213.34.365.456.151.117.344.175.577.175.375 0 .714-.162 1.018-.486.305-.324.567-.714.79-1.17.223-.456.403-.927.54-1.413s.225-.891.266-1.215l.927-4.467c-.415 0-.82.104-1.216.312-.395.208-.767.489-1.116.843s-.671.76-.965 1.215c-.294.456-.547.935-.76 1.436-.213.501-.377 1.005-.494 1.512-.116.505-.174.981-.174 1.427z"/>
  <g fill="#6FBB44">
    <path d="M20.143 41.569c-.582.537-1.233.955-1.952 1.253-.03.012-.064.016-.094.028.271.895.549 1.901.835 3.032.678 2.675 1.016 7.865 1.016 15.573l-.156 10.99c0 8.368-.799 15.416-2.396 21.146-1.076 3.854-2.639 5.781-4.688 5.781-1.528 0-2.761-1.579-3.698-4.739-.416-1.459-.799-3.081-1.146-4.87-.348-1.788-.625-3.732-.833-5.833-.209-2.101-.391-4.097-.547-5.99-.156-1.892-.261-3.802-.312-5.729-.053-1.928-.097-3.481-.131-4.662-.034-1.18-.052-2.204-.052-3.072l.052-10.209-.156-6.25c0-8.194 1.857-12.292 5.573-12.292h.208c.901 0 1.717.195 2.445.583.314-.452.652-.911 1.04-1.387.501-.614 1.046-1.227 1.624-1.837-.688-.263-1.632-.519-2.869-.77-1.459-.295-2.691-.616-3.698-.964-1.32.07-2.518.539-3.594 1.406C2.204 36.299 0 45.588 0 60.623v2.083l.052 6.511c0 1.841.034 3.681.104 5.521.938 19.375 5.26 29.062 12.969 29.062 8.367 0 12.552-10.225 12.552-30.677V60.258c0-4.167-.356-8.325-1.067-12.475-.596-3.474-1.471-6.356-2.614-8.663-.097.172-.186.354-.287.519-.463.75-.984 1.393-1.566 1.93z"/>
    <path d="M17.149 36.479c-.35.445-.656.874-.919 1.284-.067.105-.121.204-.182.305.364.509.692 1.098.982 1.773.025.057.051.123.075.182.029-.017.061-.023.089-.042.38-.249.729-.575 1.048-.98.319-.405.61-.866.874-1.383.264-.516.496-1.046.699-1.587.035-.093.056-.18.089-.272-.346-.454-.685-.853-1.017-1.197-.211.205-.426.397-.63.618-.389.421-.758.854-1.108 1.299z"/>
    <path d="M14.111 36.309c.733.39 1.379.978 1.938 1.759.061-.102.114-.2.182-.305.263-.41.569-.838.919-1.284.35-.446.719-.879 1.109-1.299.204-.221.419-.413.63-.618-.604-.624-1.19-1.077-1.754-1.336-.105-.047-.236-.094-.359-.141-.578.61-1.123 1.223-1.624 1.837-.388.476-.726.935-1.041 1.387z"/>
  </g>
  <path fill="#6FBB44" d="M41.822 59.737l.625 27.604v12.083c0 .938-.243 1.729-.729 2.37-.487.643-1.164.964-2.031.964-2.327 0-3.49-2.17-3.49-6.511l-.208-37.604.625-19.896c0-4.792 1.302-7.188 3.906-7.188 1.562 0 2.69 1.197 3.386 3.594.972 4.583 2.664 11.172 5.078 19.766 2.413 8.594 4.07 15.13 4.974 19.609.659 2.188 1.511 5.426 2.552 9.714 1.042 4.288 1.857 7.509 2.448 9.661.277-15.417.417-34.097.417-56.042l-.156-2.864c0-.972.182-1.745.547-2.318.364-.572.98-.859 1.849-.859.867 0 1.58.209 2.136.625 1.11.834 1.666 2.015 1.666 3.542 0 9.758-.278 22.292-.833 37.604-.556 15.312-1.389 24.879-2.5 28.698-.139.034-.435.13-.886.286s-.781.252-.989.286c-1.979.451-3.229.365-3.75-.26s-.895-1.459-1.12-2.5c-.226-1.042-.486-2.058-.781-3.047-.295-.99-1.397-5.721-3.307-14.193-5.104-22.396-8.247-35.416-9.428-39.062v15.938zm43.595 32.187l.208-3.646c-.278-.902-.851-8.933-1.719-24.089s-1.337-24.4-1.406-27.733c-4.097-.104-6.632-.477-7.604-1.12-.973-.642-1.459-1.31-1.459-2.005 0-.694.382-1.258 1.146-1.692.763-.434 1.51-.651 2.239-.651l14.479.989 1.719-.052c2.222 0 3.333.852 3.333 2.552 0 .869-.364 1.572-1.094 2.109-.729.539-1.545.808-2.448.808l-4.896-.729-.208 1.094c0 6.737.59 16.823 1.771 30.261 1.18 13.438 1.771 23.542 1.771 30.312 0 .869-.321 1.615-.963 2.24-.644.625-1.398.938-2.266.938h-2.396l-.207-9.586zm44.011-7.343l-.573 2.136c0 .868.312 2.986.938 6.354s.938 5.572.938 6.614v.104c0 1.598-.539 2.604-1.614 3.021-1.493 0-2.656-.243-3.49-.729-.833-.485-1.25-1.709-1.25-3.672 0-1.961-.521-5.997-1.562-12.109l-3.281-.312h-3.541c-.8-.347-2.206-.521-4.219-.521 0 .07-.044.53-.131 1.38-.087.852-.156 1.537-.208 2.058s-.139 1.294-.261 2.317c-.122 1.025-.252 1.894-.391 2.604-.139.712-.312 1.546-.521 2.5-.208.955-.442 1.754-.703 2.396-.261.644-.547 1.26-.859 1.85-.625 1.216-1.389 1.822-2.292 1.822s-1.71-.269-2.422-.807-1.067-1.225-1.067-2.058c1.875-7.188 3.48-14.722 4.817-22.604 1.337-7.882 2.136-12.56 2.396-14.036.26-1.476.867-4.323 1.822-8.542s1.528-7.039 1.719-8.464c.19-1.423.373-3.263.547-5.521.312-4.93.955-8.107 1.928-9.531h3.594c2.43 0 3.646.729 3.646 2.188 0 13.716 1.336 27.344 4.011 40.886.138.799.398 1.91.781 3.333.831 3.09 1.248 5.538 1.248 7.343zm-7.292-2.291c-.208-1.042-.312-2.726-.312-5.053 0-2.325-.148-5.147-.442-8.463-.296-3.315-.722-7.162-1.276-11.537-.556-4.375-.938-7.534-1.146-9.479-.417 2.014-1.233 5.382-2.448 10.104-2.466 9.827-3.732 17.396-3.802 22.709 1.214.799 4.355 1.372 9.426 1.719zm23.073-12.032c-.486 1.979-.729 3.811-.729 5.494 0 1.685.217 5.278.651 10.781.434 5.504.651 9.055.651 10.651 0 1.598-.287 2.812-.859 3.646-.573.834-1.225 1.25-1.953 1.25-1.042 0-1.702-.711-1.979-2.135.069-2.639.104-5.877.104-9.714 0-3.836-.305-12.266-.912-25.286-.607-13.021-.911-22.743-.911-29.167 0-3.368 1.18-5.053 3.542-5.053 3.715 0 6.84.973 9.375 2.917 2.534 1.945 3.802 4.723 3.802 8.333 0 4.862-.383 8.646-1.146 11.354-.765 2.709-2.206 6.094-4.323 10.156.382 1.702 1.059 5.104 2.031 10.209 2.049 11.041 4.357 19.01 6.927 23.906.729 1.389 1.094 2.474 1.094 3.255s-.217 1.44-.65 1.979c-.435.538-1.016.807-1.745.807-2.326 0-4.462-3.871-6.406-11.614-.833-3.367-1.58-6.771-2.239-10.208-1.875-9.409-3.073-14.705-3.594-15.886-.002.905-.245 2.346-.731 4.325zm-.156-35.573l-.364 1.51c0 2.917.069 7.128.208 12.631.139 5.504.208 9.505.208 12.005 1.667-.867 3.013-3.133 4.037-6.797 1.023-3.663 1.536-6.466 1.536-8.411 0-1.944-.052-3.377-.156-4.297s-.33-1.936-.677-3.047c-.66-2.326-2.258-3.525-4.792-3.594zm37.291 65.938l-4.011.052-4.635.209c-1.979 0-3.3-.643-3.959-1.928 0-1.041.131-1.849.391-2.422.261-.572.808-.859 1.641-.859h3.021l.208-1.407-.729-22.656.573-23.75c0-3.992-.174-7.777-.521-11.354h-4.141c-1.269 0-2.196-.199-2.787-.599-.591-.398-.885-1.154-.885-2.266 0-1.667 1.927-2.482 5.781-2.448h.364c9.132 0 13.698 1.216 13.698 3.646 0 .382-.209 1.041-.625 1.979h-5.469c.277 2.604.416 5.66.416 9.167l-.572 20.365.781 22.656v3.177c0 .625-.122 1.58-.365 2.864h4.531c2.917 0 4.375.886 4.375 2.656 0 .8-.252 1.477-.755 2.031-.504.557-1.067.834-1.692.834l-4.634.053zm39.792-27.5c0 20.452-4.185 30.677-12.552 30.677-7.709 0-12.031-9.688-12.969-29.062-.07-1.84-.104-3.68-.104-5.521l-.052-6.511v-2.083c0-15.034 2.204-24.323 6.614-27.865 1.076-.867 2.273-1.336 3.594-1.406 1.007.348 2.239.669 3.698.964 1.458.296 2.534.599 3.229.911 1.284.591 2.674 2.128 4.167 4.609 1.492 2.483 2.596 5.8 3.308 9.948.711 4.149 1.067 8.308 1.067 12.475v12.864zm-19.792-25.105l.156 6.25-.052 10.209c0 .868.018 1.893.052 3.072.034 1.181.078 2.734.131 4.662.052 1.927.156 3.837.312 5.729.156 1.894.338 3.89.547 5.99.208 2.101.485 4.045.833 5.833.347 1.789.729 3.411 1.146 4.87.938 3.16 2.17 4.739 3.698 4.739 2.049 0 3.611-1.927 4.688-5.781 1.597-5.729 2.396-12.777 2.396-21.146l.156-10.99c0-7.708-.338-12.898-1.016-15.573-.677-2.673-1.311-4.688-1.9-6.041-1.181-2.743-2.969-4.115-5.365-4.115h-.208c-3.717 0-5.574 4.098-5.574 12.292z"/>
</svg>
