<svg xmlns="http://www.w3.org/2000/svg" width="218" height="218" viewBox="0 0 218 218">
  <ellipse transform="rotate(29.472 107.93 108.78)" fill="#A8D189" cx="107.9" cy="108.8" rx="89.1" ry="105.1"/>
  <path fill="#6FBB44" d="M166 141.7c-28.5 50.5-68.8 81.7-111 58-42-24-53-84.2-24.6-134.7 28.5-50.5 86-72.2 128-48.4 42.2 24 36.2 74.5 7.7 125z"/>
  <path fill="none" stroke="#C4DFAD" stroke-width="12" stroke-miterlimit="10" d="M162 140.7c-28.5 50.5-74.3 76-103.7 59.4C29 184 27 131 55.6 81c28.6-50.5 75.5-78 105-61.4 29.3 16.6 30 71 1.5 121.5zm-1.3-125L56.4 200.4"/>
  <ellipse transform="rotate(29.472 107.93 108.78)" fill="none" stroke="#40A247" stroke-width="12" stroke-miterlimit="10" cx="107.9" cy="108.8" rx="89.1" ry="105.1"/>
</svg>